<svg width="1200" height="628" viewBox="0 0 1200 628" xmlns="http://www.w3.org/2000/svg">
  <defs>
    <linearGradient id="bg" x1="0" y1="0" x2="1" y2="1">
      <stop offset="0%" stop-color="#FFFFFF" />
      <stop offset="100%" stop-color="#EFE7D5" />
    </linearGradient>
    <linearGradient id="gold" x1="0" y1="0" x2="1" y2="0">
      <stop offset="0%" stop-color="#F9D67E" />
      <stop offset="100%" stop-color="#C9A84C" />
    </linearGradient>
  </defs>
  <rect width="1200" height="628" rx="32" fill="url(#bg)" />
  <rect x="60" y="60" width="1080" height="508" rx="32" fill="#122E1D" opacity="0.96" />
  <rect x="100" y="100" width="480" height="428" rx="28" fill="#FFFFFF" />

  <g transform="translate(160 140)">
    <path d="M0 180 Q70 80 160 120 Q220 160 300 80 Q380 145 460 120 Q540 90 600 180 Q540 240 460 220 Q380 205 300 280 Q220 350 160 310 Q70 260 0 320 Z" fill="#C9A84C" opacity="0.12" />
    <circle cx="240" cy="160" r="90" fill="#1A7A3A" />
    <path d="M200 170 L240 90 L280 170 L200 170 Z" fill="#F9D67E" />
    <circle cx="240" cy="170" r="30" fill="#F9D67E" />
  </g>

  <text x="620" y="180" fill="#F6F2E8" font-family="Inter, sans-serif" font-size="52" font-weight="700">Wallonie / Flandre</text>
  <text x="620" y="250" fill="#F6F2E8" font-family="Inter, sans-serif" font-size="40">Tarif fixe + économie énergie</text>
  <text x="620" y="320" fill="#F6F2E8" font-family="Inter, sans-serif" font-size="30">Facture +35% : passez au solaire et au tarif sécurisé.</text>

  <rect x="620" y="380" width="440" height="84" rx="42" fill="url(#gold)" />
  <text x="650" y="440" fill="#122E1D" font-family="Inter, sans-serif" font-size="32" font-weight="700">Obtenir mon étude</text>
  <text x="620" y="500" fill="#F6F2E8" font-family="Inter, sans-serif" font-size="26">Propriétaires 35-65 ans – étude gratuite</text>

  <circle cx="420" cy="356" r="32" fill="#F9D67E" />
  <text x="410" y="366" fill="#122E1D" font-family="Inter, sans-serif" font-size="24" font-weight="700">35%</text>
</svg>
