<svg width="1200" height="628" viewBox="0 0 1200 628" xmlns="http://www.w3.org/2000/svg">
  <defs>
    <linearGradient id="bg2" x1="0" y1="0" x2="1" y2="1">
      <stop offset="0%" stop-color="#E8F3F4" />
      <stop offset="100%" stop-color="#FDF7EA" />
    </linearGradient>
    <linearGradient id="btn2" x1="0" y1="0" x2="1" y2="0">
      <stop offset="0%" stop-color="#0F3D23" />
      <stop offset="100%" stop-color="#1A7A3A" />
    </linearGradient>
  </defs>
  <rect width="1200" height="628" rx="32" fill="url(#bg2)" />
  <rect x="70" y="70" width="1060" height="488" rx="36" fill="#FFF" opacity="0.96" />
  <path d="M160 160 H680 V470 H160 Z" fill="#1A7A3A" opacity="0.08" rx="32" />
  <path d="M225 235 C320 190 430 190 520 235 S725 300 850 240" fill="#1A7A3A" opacity="0.06" />
  <rect x="110" y="165" width="460" height="280" rx="28" fill="#C9E9D4" />
  <circle cx="260" cy="190" r="32" fill="#1A7A3A" opacity="0.12" />
  <path d="M340 250 C380 200 420 200 460 250 S520 310 560 250" fill="#1A7A3A" opacity="0.08" />
  <rect x="820" y="130" width="260" height="90" rx="26" fill="#0186FF" opacity="0.96" />
  <text x="860" y="185" fill="#FFF" font-family="Inter, sans-serif" font-size="44" font-weight="800">TEST</text>
  <text x="860" y="230" fill="#FFF" font-family="Inter, sans-serif" font-size="34" font-weight="700">GRATUIT</text>
  <text x="170" y="520" fill="#122E1D" font-family="Inter, sans-serif" font-size="56" font-weight="800">Zéro euro investi</text>
  <text x="170" y="580" fill="#122E1D" font-family="Inter, sans-serif" font-size="32">Panneaux + batterie financés par Gaele XL</text>
  <rect x="170" y="602" width="420" height="56" rx="28" fill="url(#btn2)" />
  <text x="210" y="642" fill="#FFF" font-family="Inter, sans-serif" font-size="28" font-weight="700">Voir mon offre gratuite</text>
</svg>
