<svg width="1005" height="650" viewBox="0 0 1005 650" xmlns="http://www.w3.org/2000/svg">
    <!-- Fond -->
    <rect width="1005" height="650" fill="white" rx="20" ry="20"/>
    
    <!-- Bordure Dorée du haut -->
    <rect width="1005" height="15" fill="#D4AF37"/>
    
    <!-- Logo GAELE (Hexagone) -->
    <g transform="translate(60, 100)">
        <path d="M70 7 L126 38.5 L126 101.5 L70 133 L14 101.5 L14 38.5 Z" fill="#003322" />
        <path d="M77 35 L49 77 L70 77 L63 105 L91 63 L70 63 Z" fill="#D4AF37" />
    </g>

    <!-- Titres Header -->
    <text x="945" y="65" font-family="Arial, sans-serif" font-weight="900" font-size="22" fill="#003322" text-anchor="end">CONSEILLER ÉNERGIE GAELE / GAELE XL</text>
    <text x="945" y="95" font-family="Arial, sans-serif" font-weight="700" font-size="22" fill="#94a3b8" text-anchor="end">GRIDLINK</text>

    <!-- Hero Text -->
    <text x="60" y="320" font-family="Arial, sans-serif" font-weight="900" font-size="52" fill="#003322">RÉDUISEZ VOTRE FACTURE ÉNERGIE</text>
    <text x="60" y="410" font-family="Arial, sans-serif" font-weight="900" font-size="62" fill="#D4AF37">SANS INVESTIR</text>
    
    <!-- Séparateur -->
    <line x1="60" y1="460" x2="945" y2="460" stroke="#f1f5f9" stroke-width="2"/>

    <!-- Contact Info -->
    <text x="60" y="525" font-family="Arial, sans-serif" font-weight="900" font-size="36" fill="#003322">Andy Kyambikwa</text>
    
    <!-- Phone -->
    <text x="60" y="575" font-family="Arial, sans-serif" font-weight="700" font-size="24" fill="#D4AF37">📞</text>
    <text x="100" y="575" font-family="Arial, sans-serif" font-weight="700" font-size="24" fill="#475569">0470 43 22 11</text>
    
    <!-- Email -->
    <text x="60" y="615" font-family="Arial, sans-serif" font-weight="700" font-size="24" fill="#D4AF37">✉</text>
    <text x="100" y="615" font-family="Arial, sans-serif" font-weight="700" font-size="24" fill="#475569">INFOS@GAELE-ADVISOR.BE</text>

    <!-- Accent Bas Droite -->
    <path d="M925 610 L1005 610 L1005 650 L945 650 Q925 650 925 630 Z" fill="#003322"/>
    <path d="M950 635 L960 645 L980 625" stroke="white" stroke-width="4" fill="none" transform="translate(5,-5)"/>
</svg>
